<?xml version="1.0" encoding="utf-8"?>
<!-- Svg Vector Icons : http://www.onlinewebfonts.com/icon -->
<!DOCTYPE svg PUBLIC "-//W3C//DTD SVG 1.1//EN" "http://www.w3.org/Graphics/SVG/1.1/DTD/svg11.dtd">
<svg version="1.1" xmlns="http://www.w3.org/2000/svg" xmlns:xlink="http://www.w3.org/1999/xlink" x="0px" y="0px" viewBox="0 0 1000 1000" enable-background="new 0 0 1000 1000" xml:space="preserve">
<metadata> Svg Vector Icons : http://www.onlinewebfonts.com/icon </metadata>
<g><path d="M969.8,870.3c27,27.7,27,71.8,0,99.1C955.7,983,937.9,990,920,990c-17.9,0-35.7-7-49.7-20.7L500,599L129.6,969.4C115.6,983,97.8,990,79.9,990s-35.7-7-49.7-20.7c-27-27.3-27-71.4,0-99.1L400.9,500L30.3,129.3c-27-27.3-27-71.4,0-99.1c27.3-27,71.8-27,99.4,0L500,400.9L870.4,30.2c27.7-27,71.8-27,99.4,0c27,27.7,27,71.8,0,99.1L599.1,500L969.8,870.3z"/></g>
</svg>